<?xml version="1.0" encoding="UTF-8"?>
<svg xmlns="http://www.w3.org/2000/svg" xmlns:xlink="http://www.w3.org/1999/xlink" width="120px" height="88px" viewBox="0 0 119 88" version="1.1">
<g id="surface1">
<path style=" stroke:none;fill-rule:nonzero;fill:rgb(0%,0%,0%);fill-opacity:1;" d="M 54.820312 3.261719 C 54.792969 3.320312 54.671875 3.339844 54.5625 3.308594 C 54.070312 3.199219 53.699219 3.46875 53.394531 4.15625 C 53.347656 4.269531 53.226562 4.382812 53.125 4.398438 C 52.847656 4.476562 51.996094 5.882812 51.996094 6.265625 C 51.996094 6.75 51.835938 6.710938 51.78125 6.207031 C 51.707031 5.433594 51.539062 5.050781 51.234375 4.949219 C 51.078125 4.894531 50.957031 4.894531 50.929688 4.949219 C 50.894531 4.996094 50.734375 5.035156 50.578125 5.042969 C 50.410156 5.042969 50.195312 5.078125 50.105469 5.117188 C 50.003906 5.15625 49.714844 5.144531 49.445312 5.109375 C 49.058594 5.035156 48.890625 5.050781 48.492188 5.210938 C 48.230469 5.3125 47.953125 5.378906 47.890625 5.351562 C 47.824219 5.332031 47.566406 5.414062 47.316406 5.546875 C 47.066406 5.6875 46.785156 5.769531 46.6875 5.742188 C 46.480469 5.6875 46.214844 5.808594 45.925781 6.070312 C 45.742188 6.234375 45.722656 6.234375 45.386719 5.957031 C 45.203125 5.796875 45.042969 5.714844 45.042969 5.769531 C 45.042969 5.816406 45.089844 5.890625 45.136719 5.921875 C 45.371094 6.070312 45.582031 6.710938 45.628906 7.457031 C 45.703125 8.378906 45.742188 8.660156 45.871094 9.226562 C 45.925781 9.460938 45.972656 10.21875 45.972656 10.914062 C 45.972656 12.269531 46.121094 13.03125 46.445312 13.386719 C 46.535156 13.488281 46.621094 13.683594 46.621094 13.824219 C 46.621094 14.046875 46.582031 14.078125 46.304688 14.078125 C 46.128906 14.078125 45.878906 14.039062 45.757812 13.992188 C 45.453125 13.871094 45.195312 13.957031 45.089844 14.199219 C 44.859375 14.71875 43.886719 14.832031 43.117188 14.429688 C 42.847656 14.292969 42.636719 14.207031 42.636719 14.246094 C 42.636719 14.367188 43.542969 14.925781 43.941406 15.054688 C 44.277344 15.148438 44.3125 15.1875 44.164062 15.230469 C 43.738281 15.382812 43.136719 15.707031 42.960938 15.902344 C 42.859375 16.015625 42.570312 16.183594 42.332031 16.265625 C 42.089844 16.359375 41.859375 16.492188 41.820312 16.546875 C 41.738281 16.695312 40.875 17.117188 40.503906 17.199219 C 40.265625 17.253906 40.210938 17.21875 40.042969 16.949219 C 39.847656 16.628906 39.8125 16.6875 39.855469 17.226562 C 39.863281 17.339844 39.78125 17.542969 39.679688 17.675781 C 39.570312 17.8125 39.484375 18 39.484375 18.105469 C 39.484375 18.261719 39.511719 18.253906 39.738281 18.039062 C 40.058594 17.75 40.144531 17.75 40.410156 18.039062 L 40.636719 18.273438 L 40.46875 18.8125 C 40.375 19.101562 40.199219 19.558594 40.078125 19.828125 C 39.957031 20.089844 39.855469 20.332031 39.855469 20.367188 C 39.855469 20.394531 39.792969 20.574219 39.71875 20.761719 C 39.585938 21.066406 39.558594 21.085938 39.410156 20.957031 C 39.144531 20.714844 38.523438 20.433594 37.828125 20.238281 C 37.464844 20.136719 37.132812 20.03125 37.09375 20.003906 C 37.011719 19.957031 36.53125 20.089844 36.214844 20.238281 C 36.101562 20.292969 35.945312 20.265625 35.703125 20.152344 C 34.769531 19.679688 33.507812 19.9375 33.0625 20.714844 C 32.953125 20.910156 32.84375 20.976562 32.628906 20.976562 C 32.3125 20.976562 32.277344 21.03125 32.230469 21.589844 C 32.203125 21.90625 32.121094 22.054688 31.722656 22.457031 C 31.035156 23.144531 30.933594 23.3125 31.054688 23.621094 C 31.136719 23.847656 31.128906 23.863281 30.980469 23.78125 C 30.898438 23.734375 30.570312 23.648438 30.265625 23.585938 C 29.960938 23.519531 29.421875 23.351562 29.082031 23.191406 C 28.726562 23.042969 28.402344 22.933594 28.347656 22.949219 C 28.234375 22.988281 29.082031 23.734375 29.617188 24.0625 C 29.820312 24.191406 30.164062 24.347656 30.386719 24.421875 C 30.851562 24.574219 31.089844 24.796875 30.785156 24.796875 C 30.367188 24.796875 30.617188 24.945312 31.203125 25.046875 C 31.535156 25.105469 31.878906 25.214844 31.960938 25.292969 C 32.054688 25.367188 32.304688 25.449219 32.535156 25.484375 C 32.769531 25.523438 33.183594 25.652344 33.480469 25.792969 C 33.945312 26 34.039062 26.09375 34.269531 26.550781 C 34.613281 27.230469 35.511719 28.207031 36.03125 28.441406 L 36.4375 28.628906 L 36.242188 28.871094 C 35.242188 30.15625 34.675781 30.707031 33.917969 31.152344 C 33.339844 31.5 33.304688 31.507812 32.414062 31.507812 C 31.191406 31.507812 30.367188 31.714844 29.515625 32.21875 C 29.136719 32.441406 28.800781 32.625 28.78125 32.625 C 28.609375 32.625 27.996094 33.121094 28.003906 33.261719 C 28.003906 33.382812 28.023438 33.375 28.089844 33.207031 C 28.136719 33.09375 28.226562 33 28.292969 33 C 28.355469 33 28.894531 32.757812 29.488281 32.449219 C 30.488281 31.945312 30.628906 31.898438 31.386719 31.84375 C 31.84375 31.816406 32.480469 31.824219 32.804688 31.871094 C 33.519531 31.984375 34.101562 31.882812 34.898438 31.507812 C 35.910156 31.03125 36.519531 30.761719 36.601562 30.761719 C 36.648438 30.761719 36.808594 30.699219 36.957031 30.613281 C 37.214844 30.464844 37.234375 30.464844 37.476562 30.6875 C 37.6875 30.894531 37.726562 30.996094 37.726562 31.472656 C 37.726562 31.984375 37.816406 32.898438 37.964844 33.960938 L 38.03125 34.398438 L 37.734375 34.34375 C 37.382812 34.269531 37.121094 34.464844 37.039062 34.875 C 36.992188 35.105469 36.949219 35.144531 36.6875 35.144531 C 36.324219 35.132812 35.605469 34.789062 35.464844 34.566406 C 35.324219 34.332031 35.558594 33.96875 36.003906 33.746094 L 36.382812 33.550781 L 36.058594 33.605469 C 35.410156 33.707031 35.074219 34.304688 35.410156 34.773438 C 35.605469 35.050781 35.648438 35.191406 35.511719 35.097656 C 35.464844 35.070312 35.398438 35.085938 35.363281 35.144531 C 35.335938 35.191406 35.140625 35.238281 34.9375 35.238281 C 34.675781 35.238281 34.574219 35.273438 34.601562 35.347656 C 34.632812 35.433594 34.925781 35.46875 35.648438 35.46875 C 37.195312 35.46875 37.1875 35.46875 37.316406 37.605469 C 37.34375 38.125 37.429688 38.753906 37.496094 39.011719 C 37.558594 39.265625 37.640625 39.636719 37.679688 39.824219 C 37.734375 40.160156 37.726562 40.179688 37.484375 40.179688 C 37.105469 40.179688 35.851562 39.804688 35.667969 39.636719 C 35.574219 39.5625 35.5 39.542969 35.5 39.601562 C 35.5 39.785156 35.992188 40.085938 36.296875 40.085938 C 36.695312 40.085938 36.789062 40.242188 36.4375 40.316406 C 36.289062 40.347656 36.140625 40.441406 36.113281 40.515625 C 36.085938 40.585938 35.9375 40.644531 35.761719 40.644531 C 35.558594 40.644531 35.316406 40.765625 34.953125 41.042969 C 34.453125 41.425781 33.933594 41.773438 33.203125 42.191406 C 32.886719 42.367188 32.863281 42.414062 32.832031 42.855469 C 32.816406 43.226562 32.84375 43.335938 32.960938 43.382812 C 33.175781 43.46875 33.269531 43.355469 33.0625 43.246094 C 32.90625 43.152344 32.851562 42.824219 32.980469 42.640625 C 33.019531 42.582031 33.480469 42.304688 34.019531 42.015625 C 34.789062 41.605469 35.160156 41.464844 35.777344 41.351562 C 36.613281 41.203125 37.058594 41.257812 38.355469 41.632812 C 38.71875 41.746094 39.113281 41.773438 39.726562 41.746094 C 40.523438 41.707031 40.792969 41.761719 40.476562 41.882812 C 40.410156 41.914062 40.300781 42.089844 40.238281 42.292969 C 40.117188 42.675781 40.152344 42.84375 40.542969 43.523438 C 40.652344 43.71875 40.652344 43.785156 40.523438 44.054688 C 40.367188 44.390625 40.410156 44.523438 40.644531 44.4375 C 40.71875 44.402344 40.78125 44.269531 40.78125 44.128906 L 40.78125 43.886719 L 41.460938 43.945312 C 42.035156 44 42.164062 43.980469 42.40625 43.8125 C 42.582031 43.691406 42.832031 43.625 43.109375 43.625 C 43.515625 43.625 43.554688 43.644531 43.914062 44.113281 C 44.332031 44.671875 45.507812 46.5625 45.507812 46.695312 C 45.507812 46.730469 45.164062 46.890625 44.75 47.03125 C 44.324219 47.160156 43.914062 47.339844 43.839844 47.402344 C 43.730469 47.496094 42.433594 48.007812 42.292969 48.007812 C 42.285156 48.007812 42.179688 47.839844 42.089844 47.644531 C 41.875 47.234375 41.460938 46.9375 40.96875 46.84375 C 40.710938 46.796875 40.578125 46.835938 40.320312 47.019531 C 40.144531 47.152344 39.835938 47.339844 39.652344 47.449219 C 39.253906 47.664062 39.023438 48.054688 39.023438 48.503906 C 39.023438 48.671875 39.003906 48.835938 38.976562 48.855469 C 38.902344 48.929688 36.53125 48.417969 35.777344 48.167969 C 33.964844 47.558594 32.183594 47.09375 30.21875 46.722656 C 29.414062 46.5625 28.46875 46.496094 26.902344 46.480469 L 25.449219 46.46875 L 24.726562 45.976562 C 24.140625 45.585938 23.917969 45.492188 23.613281 45.492188 L 23.222656 45.492188 L 23.550781 45.238281 C 24.113281 44.800781 24.429688 44.390625 24.910156 43.503906 C 25.484375 42.453125 25.679688 41.875 25.699219 41.15625 C 25.707031 40.625 25.578125 40.179688 25.410156 40.179688 C 25.363281 40.179688 25.300781 40.375 25.261719 40.617188 C 25.1875 41.183594 24.816406 42.320312 24.59375 42.667969 C 24.214844 43.28125 23.761719 43.746094 23.355469 43.960938 C 23.113281 44.085938 22.890625 44.222656 22.851562 44.28125 C 22.722656 44.484375 22.621094 44.355469 22.621094 43.980469 C 22.621094 43.636719 22.675781 43.535156 23.167969 43.023438 C 23.640625 42.535156 23.742188 42.351562 23.945312 41.707031 C 24.066406 41.304688 24.195312 40.746094 24.234375 40.46875 C 24.308594 39.898438 24.496094 39.476562 24.707031 39.394531 C 24.789062 39.367188 24.835938 39.300781 24.808594 39.253906 C 24.773438 39.207031 24.863281 39.042969 24.992188 38.875 C 25.347656 38.453125 25.199219 38.414062 24.828125 38.835938 C 24.660156 39.023438 24.410156 39.308594 24.269531 39.460938 C 23.992188 39.777344 23.601562 40.746094 23.503906 41.390625 C 23.398438 42.015625 23.03125 42.742188 22.660156 43.023438 L 22.324219 43.273438 L 21.972656 42.929688 C 21.324219 42.285156 19.675781 42.070312 17.765625 42.378906 C 16.347656 42.609375 15.292969 42.460938 15.152344 42.023438 C 15.117188 41.894531 15.070312 41.914062 14.855469 42.152344 L 14.597656 42.433594 L 14.246094 42.191406 C 14.050781 42.058594 13.847656 41.949219 13.792969 41.949219 C 13.734375 41.949219 13.71875 42.144531 13.753906 42.453125 C 13.800781 42.890625 13.773438 42.984375 13.605469 43.144531 C 13.496094 43.234375 13.328125 43.347656 13.234375 43.375 C 13.152344 43.410156 13.03125 43.550781 12.964844 43.691406 C 12.867188 43.945312 12.707031 44.148438 12.253906 44.605469 C 12.046875 44.820312 12.039062 44.855469 12.152344 45.304688 C 12.214844 45.566406 12.328125 45.835938 12.402344 45.910156 C 12.578125 46.085938 12.476562 46.238281 12.1875 46.238281 C 11.875 46.238281 11.910156 46.46875 12.28125 46.824219 C 12.457031 46.992188 12.613281 47.226562 12.632812 47.355469 C 12.660156 47.617188 12.882812 47.683594 14.164062 47.8125 C 14.578125 47.851562 14.976562 47.933594 15.050781 47.988281 C 15.210938 48.121094 15.144531 48.457031 14.746094 49.6875 C 14.597656 50.117188 14.503906 50.507812 14.523438 50.542969 C 14.550781 50.582031 14.765625 50.730469 15.003906 50.871094 C 15.460938 51.140625 15.921875 51.1875 17.5 51.09375 C 18.054688 51.066406 18.082031 51.046875 18.445312 50.609375 C 18.871094 50.117188 19.648438 49.6875 20.148438 49.6875 C 20.316406 49.6875 20.667969 49.585938 20.917969 49.453125 C 21.167969 49.324219 21.378906 49.21875 21.398438 49.21875 C 21.511719 49.21875 21.359375 50.125 21.128906 50.824219 C 20.796875 51.8125 20.574219 52.277344 19.878906 53.472656 C 19.601562 53.9375 19.378906 54.375 19.378906 54.449219 C 19.378906 54.523438 19.296875 54.703125 19.195312 54.859375 C 19 55.148438 18.933594 55.933594 19.101562 55.933594 C 19.203125 55.933594 19.222656 55.820312 19.195312 55.484375 C 19.183594 55.355469 19.230469 55.28125 19.332031 55.28125 C 19.425781 55.28125 19.472656 55.214844 19.453125 55.113281 C 19.441406 55.027344 19.535156 54.851562 19.65625 54.71875 C 19.785156 54.578125 20.046875 54.300781 20.242188 54.085938 C 20.433594 53.871094 20.648438 53.695312 20.722656 53.695312 C 20.90625 53.695312 21 53.5 20.859375 53.414062 C 20.769531 53.359375 20.789062 53.273438 20.933594 53.023438 C 21.628906 51.894531 21.984375 51.234375 22.066406 50.878906 C 22.175781 50.355469 22.1875 49.667969 22.066406 49.359375 C 21.964844 49.097656 22.039062 48.382812 22.167969 48.382812 C 22.207031 48.382812 22.324219 48.558594 22.417969 48.78125 C 22.519531 49.003906 22.761719 49.3125 22.957031 49.472656 C 23.296875 49.742188 23.335938 49.816406 23.445312 50.46875 C 23.585938 51.335938 23.511719 52.566406 23.296875 52.734375 C 23.222656 52.792969 23.1875 52.894531 23.222656 52.949219 C 23.261719 53.015625 23.203125 53.117188 23.09375 53.191406 C 22.871094 53.351562 22.835938 53.714844 23.019531 53.871094 C 23.203125 54.023438 23.492188 53.769531 23.511719 53.441406 C 23.539062 52.957031 23.753906 51.699219 23.890625 51.179688 C 24.195312 50.042969 24.300781 48.996094 24.113281 48.792969 C 24.074219 48.746094 24.011719 48.558594 23.984375 48.371094 L 23.9375 48.035156 L 24.640625 47.726562 C 25.320312 47.421875 25.410156 47.414062 26.511719 47.394531 C 27.144531 47.382812 28.265625 47.4375 28.988281 47.503906 C 30.832031 47.683594 31.871094 47.925781 35.269531 48.929688 C 35.632812 49.042969 36.175781 49.171875 36.503906 49.21875 C 37.105469 49.324219 38.820312 49.84375 38.964844 49.976562 C 39.097656 50.089844 38.761719 50.421875 38.261719 50.675781 C 37.882812 50.871094 37.816406 50.945312 37.816406 51.179688 C 37.816406 51.382812 37.6875 51.597656 37.355469 51.96875 C 37.105469 52.25 36.890625 52.566406 36.890625 52.660156 C 36.890625 52.761719 36.863281 52.902344 36.835938 52.984375 C 36.808594 53.070312 36.828125 53.136719 36.882812 53.136719 C 36.9375 53.136719 36.976562 53.105469 36.976562 53.058594 C 36.929688 52.773438 37.328125 52.519531 37.875 52.492188 C 38.152344 52.484375 38.167969 52.511719 38.363281 53.105469 L 38.558594 53.742188 L 38.523438 53.199219 C 38.476562 52.632812 38.605469 52.492188 38.855469 52.839844 C 39.003906 53.042969 41.234375 53.835938 42.210938 54.023438 C 42.609375 54.097656 43.109375 54.160156 43.332031 54.160156 C 43.554688 54.160156 43.757812 54.199219 43.792969 54.246094 C 43.824219 54.300781 43.691406 54.488281 43.507812 54.671875 L 43.171875 55.007812 L 41.960938 54.953125 L 40.738281 54.898438 L 40.28125 55.207031 C 40.03125 55.375 39.765625 55.550781 39.679688 55.605469 C 39.347656 55.808594 38.28125 57.042969 38.28125 57.207031 C 38.28125 57.320312 38.214844 57.453125 38.140625 57.515625 C 38.066406 57.582031 38.003906 57.601562 38.003906 57.5625 C 38.003906 57.527344 37.949219 57.542969 37.875 57.601562 C 37.800781 57.65625 37.6875 57.695312 37.621094 57.683594 C 37.546875 57.664062 37.503906 57.710938 37.519531 57.777344 C 37.546875 57.9375 37.074219 58.347656 36.871094 58.355469 C 36.675781 58.355469 36.667969 58.394531 36.816406 58.625 C 36.957031 58.851562 36.789062 59.289062 36.566406 59.289062 C 36.492188 59.289062 36.429688 59.324219 36.429688 59.382812 C 36.429688 59.429688 36.476562 59.476562 36.53125 59.476562 C 36.59375 59.476562 36.613281 59.566406 36.59375 59.707031 C 36.539062 59.988281 36.53125 59.988281 36.796875 59.753906 C 36.917969 59.652344 37.046875 59.566406 37.09375 59.566406 C 37.234375 59.566406 37.167969 59.941406 36.9375 60.425781 C 36.753906 60.816406 36.734375 60.929688 36.828125 61.050781 C 36.882812 61.132812 37.09375 61.394531 37.28125 61.628906 C 37.621094 62.039062 37.632812 62.074219 37.632812 62.792969 C 37.632812 63.304688 37.679688 63.59375 37.773438 63.726562 C 37.984375 64.003906 37.9375 64.164062 37.503906 64.59375 C 37.269531 64.816406 36.984375 65.246094 36.84375 65.542969 C 36.714844 65.839844 36.566406 66.113281 36.519531 66.140625 C 36.382812 66.222656 35.734375 65.851562 35.472656 65.535156 C 35.269531 65.292969 35.203125 65.265625 35 65.347656 C 34.84375 65.402344 34.675781 65.609375 34.527344 65.925781 C 34.269531 66.476562 34.234375 66.855469 34.4375 67.023438 C 34.640625 67.191406 34.601562 67.390625 34.34375 67.511719 C 34.195312 67.574219 34.113281 67.6875 34.113281 67.828125 C 34.113281 67.949219 34.074219 68.070312 34.019531 68.097656 C 33.964844 68.132812 33.964844 68.207031 34.039062 68.320312 C 34.113281 68.441406 34.101562 68.636719 34.007812 69.085938 C 33.945312 69.414062 33.878906 70.082031 33.878906 70.566406 C 33.871094 71.0625 33.84375 71.5 33.8125 71.546875 C 33.714844 71.722656 33.917969 72.636719 34.214844 73.28125 C 34.621094 74.15625 35.242188 74.746094 36.085938 75.03125 C 36.648438 75.21875 36.835938 75.238281 38.125 75.199219 C 38.890625 75.183594 39.691406 75.117188 39.882812 75.070312 C 40.199219 74.976562 40.246094 74.984375 40.367188 75.171875 C 40.449219 75.304688 40.515625 75.695312 40.53125 76.265625 C 40.550781 76.746094 40.597656 77.207031 40.636719 77.261719 C 40.671875 77.328125 40.800781 77.375 40.921875 77.375 C 41.253906 77.375 41.28125 77.523438 41.023438 77.976562 C 40.894531 78.203125 40.78125 78.445312 40.78125 78.511719 C 40.78125 78.574219 40.617188 78.902344 40.410156 79.238281 C 40.070312 79.804688 39.929688 80.355469 40.132812 80.355469 C 40.253906 80.355469 40.550781 80.925781 40.515625 81.121094 C 40.503906 81.230469 40.578125 81.296875 40.753906 81.335938 C 40.894531 81.363281 41.164062 81.429688 41.339844 81.476562 C 41.515625 81.523438 41.875 81.585938 42.128906 81.613281 C 42.386719 81.652344 42.71875 81.71875 42.886719 81.765625 C 43.117188 81.835938 43.320312 81.820312 43.792969 81.671875 C 44.136719 81.558594 44.609375 81.476562 44.84375 81.476562 C 45.089844 81.476562 45.453125 81.382812 45.730469 81.25 C 45.988281 81.128906 46.445312 80.933594 46.742188 80.820312 L 47.277344 80.617188 L 47.5 80.859375 C 47.632812 81 47.878906 81.175781 48.058594 81.25 C 48.277344 81.34375 48.382812 81.445312 48.382812 81.578125 C 48.382812 81.679688 48.425781 81.734375 48.472656 81.707031 C 48.53125 81.671875 48.566406 81.828125 48.566406 82.117188 C 48.566406 82.40625 48.605469 82.59375 48.667969 82.59375 C 48.734375 82.59375 48.761719 82.707031 48.734375 82.863281 C 48.714844 83.023438 48.722656 83.125 48.769531 83.097656 C 48.808594 83.070312 48.84375 83.152344 48.84375 83.28125 C 48.84375 83.609375 49.039062 84.011719 49.175781 83.953125 C 49.242188 83.925781 49.355469 84.058594 49.4375 84.28125 C 49.519531 84.476562 49.632812 84.644531 49.6875 84.644531 C 49.753906 84.644531 49.78125 84.765625 49.753906 84.96875 C 49.734375 85.148438 49.742188 85.296875 49.78125 85.296875 C 49.816406 85.296875 49.875 85.398438 49.902344 85.53125 C 49.9375 85.660156 50.003906 85.761719 50.046875 85.761719 C 50.09375 85.761719 50.113281 85.882812 50.085938 86.042969 C 50.046875 86.210938 50.074219 86.378906 50.140625 86.460938 C 50.226562 86.5625 50.234375 86.796875 50.1875 87.300781 C 50.121094 88.074219 50.214844 88.207031 50.492188 87.71875 C 50.578125 87.5625 50.699219 87.457031 50.753906 87.476562 C 50.808594 87.496094 50.921875 87.375 51.003906 87.207031 C 51.085938 87.039062 51.207031 86.898438 51.273438 86.910156 C 51.734375 86.929688 51.890625 86.871094 51.921875 86.675781 C 51.9375 86.546875 52.039062 86.453125 52.199219 86.40625 C 52.335938 86.367188 52.542969 86.246094 52.664062 86.144531 C 52.78125 86.023438 52.882812 85.984375 52.902344 86.042969 C 52.929688 86.105469 53.03125 86.058594 53.164062 85.9375 C 53.367188 85.746094 53.382812 85.746094 53.382812 85.902344 C 53.382812 86.050781 53.421875 86.042969 53.644531 85.828125 C 53.921875 85.558594 54.125 85.503906 54.125 85.6875 C 54.125 85.761719 54.164062 85.753906 54.21875 85.660156 C 54.28125 85.546875 54.421875 85.511719 54.691406 85.53125 C 54.941406 85.539062 55.082031 85.511719 55.117188 85.425781 C 55.144531 85.351562 55.210938 85.296875 55.273438 85.296875 C 55.40625 85.296875 56.070312 84.585938 56.070312 84.457031 C 56.070312 84.402344 56.125 84.363281 56.191406 84.363281 C 56.265625 84.363281 56.378906 84.1875 56.441406 83.972656 C 56.507812 83.75 56.636719 83.460938 56.730469 83.320312 C 56.945312 83.023438 56.953125 82.910156 56.765625 82.835938 C 56.683594 82.808594 56.628906 82.667969 56.628906 82.507812 C 56.628906 82.359375 56.570312 82.21875 56.507812 82.191406 C 56.320312 82.117188 56.050781 81.25 56.125 80.953125 C 56.164062 80.804688 56.199219 80.652344 56.21875 80.617188 C 56.246094 80.589844 56.730469 81.027344 57.304688 81.605469 C 58.222656 82.519531 59.34375 83.515625 60.777344 84.691406 C 61.289062 85.101562 61.648438 85.136719 61.324219 84.746094 C 61.261719 84.660156 61.140625 84.421875 61.074219 84.195312 C 60.972656 83.859375 60.972656 83.777344 61.066406 83.710938 C 61.148438 83.664062 61.15625 83.617188 61.085938 83.582031 C 60.9375 83.488281 60.964844 83.339844 61.121094 83.339844 C 61.25 83.339844 61.25 83.308594 61.128906 83.070312 C 61 82.828125 61 82.789062 61.121094 82.742188 C 61.203125 82.714844 61.261719 82.574219 61.261719 82.398438 C 61.261719 82.171875 61.296875 82.117188 61.398438 82.164062 C 61.484375 82.191406 61.546875 82.15625 61.546875 82.078125 C 61.558594 82.003906 61.578125 81.894531 61.585938 81.847656 C 61.59375 81.792969 61.613281 81.691406 61.621094 81.613281 C 61.621094 81.539062 61.667969 81.476562 61.703125 81.476562 C 61.84375 81.476562 63.019531 83.042969 63.226562 83.496094 C 63.472656 84.046875 63.578125 85.492188 63.390625 85.714844 C 63.300781 85.828125 63.300781 85.894531 63.375 85.96875 C 63.445312 86.042969 63.484375 86.433594 63.484375 87.039062 L 63.484375 88 L 64.132812 88 L 64.132812 87.03125 C 64.132812 86.386719 64.171875 86.042969 64.234375 86.023438 C 64.320312 85.996094 64.320312 85.9375 64.234375 85.792969 C 64.105469 85.53125 64.105469 85.230469 64.246094 85.148438 C 64.464844 85.007812 64.566406 85.398438 64.585938 86.480469 C 64.597656 87.085938 64.632812 87.671875 64.660156 87.785156 L 64.707031 88 L 75.003906 88 L 74.9375 87.609375 C 74.898438 87.382812 74.855469 86.6875 74.824219 86.042969 C 74.796875 85.398438 74.742188 84.691406 74.703125 84.457031 C 74.660156 84.226562 74.621094 83.832031 74.613281 83.570312 C 74.601562 82.722656 74.324219 81.445312 74.011719 80.773438 C 73.835938 80.414062 73.566406 79.824219 73.398438 79.46875 C 73.101562 78.816406 71.972656 77.464844 71.621094 77.34375 C 71.527344 77.308594 71.453125 77.242188 71.453125 77.195312 C 71.453125 77.074219 70.886719 76.730469 70.0625 76.367188 C 69.386719 76.058594 69.097656 75.976562 68.210938 75.789062 C 67.980469 75.742188 67.488281 75.640625 67.109375 75.546875 L 66.421875 75.386719 L 67.171875 75.136719 C 67.859375 74.894531 68.152344 74.753906 69.292969 74.101562 C 69.675781 73.886719 69.683594 73.886719 70.128906 74.042969 C 70.371094 74.128906 70.703125 74.203125 70.851562 74.203125 C 71.109375 74.203125 73.222656 74.902344 75.066406 75.601562 C 76.011719 75.957031 76.707031 76.160156 76.984375 76.160156 C 77.226562 76.160156 78.921875 76.945312 79.164062 77.160156 C 79.320312 77.296875 79.328125 77.289062 79.328125 76.972656 C 79.328125 76.792969 79.207031 76.300781 79.050781 75.882812 C 78.902344 75.460938 78.664062 74.699219 78.53125 74.175781 C 78.402344 73.652344 78.179688 73.011719 78.042969 72.757812 C 77.847656 72.402344 77.773438 72.125 77.726562 71.59375 C 77.679688 70.894531 77.679688 70.894531 77.984375 70.605469 C 78.664062 69.980469 79.570312 69.746094 80.921875 69.851562 C 81.90625 69.925781 81.925781 69.925781 82.359375 69.664062 C 83.035156 69.273438 83.332031 69.105469 83.683594 68.925781 C 83.859375 68.84375 84.082031 68.742188 84.167969 68.695312 C 84.257812 68.648438 84.480469 68.609375 84.667969 68.609375 C 84.851562 68.609375 85.15625 68.574219 85.34375 68.515625 C 85.527344 68.46875 85.871094 68.40625 86.101562 68.375 C 86.410156 68.339844 86.6875 68.207031 87.09375 67.910156 C 87.398438 67.6875 87.667969 67.519531 87.695312 67.546875 C 87.714844 67.574219 88.253906 67.34375 88.875 67.023438 C 89.503906 66.71875 90.066406 66.464844 90.140625 66.464844 C 90.308594 66.464844 90.402344 66.214844 90.28125 66.066406 C 90.078125 65.8125 90.21875 65.46875 90.691406 65.03125 L 91.171875 64.601562 L 91.402344 64.789062 C 91.589844 64.9375 91.652344 65.085938 91.679688 65.421875 L 91.707031 65.859375 L 91.726562 65.410156 C 91.746094 65.066406 91.671875 64.808594 91.410156 64.257812 L 91.070312 63.539062 L 91.132812 62.394531 C 91.160156 61.757812 91.160156 61.246094 91.117188 61.246094 C 91.070312 61.246094 90.902344 61.050781 90.746094 60.808594 C 90.484375 60.398438 89.347656 59.175781 88.429688 58.320312 C 88 57.925781 87.929688 57.75 88.222656 57.824219 C 88.34375 57.851562 88.410156 57.824219 88.410156 57.75 C 88.410156 57.574219 88.761719 57.480469 88.921875 57.609375 C 89.140625 57.796875 89.078125 57.5625 88.855469 57.367188 C 88.519531 57.078125 88.167969 56.957031 87.621094 56.957031 C 87.234375 56.957031 87.113281 56.921875 87.113281 56.816406 C 87.113281 56.742188 87.167969 56.679688 87.234375 56.679688 C 87.308594 56.679688 87.296875 56.640625 87.203125 56.585938 C 87.128906 56.539062 86.9375 56.492188 86.777344 56.492188 C 86.585938 56.492188 86.410156 56.398438 86.183594 56.164062 C 85.878906 55.847656 85.851562 55.597656 86.140625 55.839844 C 86.222656 55.914062 86.492188 55.960938 86.769531 55.949219 C 87.039062 55.941406 87.417969 55.988281 87.621094 56.042969 C 87.824219 56.101562 88.195312 56.15625 88.449219 56.175781 C 88.695312 56.203125 88.945312 56.25 89.003906 56.296875 C 89.058594 56.34375 89.273438 56.40625 89.464844 56.445312 C 89.789062 56.5 89.820312 56.492188 89.714844 56.371094 C 89.578125 56.191406 89.667969 55.617188 89.863281 55.449219 C 89.9375 55.390625 90.246094 55.335938 90.550781 55.335938 C 90.847656 55.328125 91.097656 55.289062 91.097656 55.242188 C 91.097656 55.207031 91.253906 55.195312 91.449219 55.222656 C 91.632812 55.253906 91.847656 55.28125 91.910156 55.269531 C 92.0625 55.269531 92.542969 55.269531 92.976562 55.28125 C 93.191406 55.289062 93.347656 55.34375 93.386719 55.429688 C 93.414062 55.496094 93.507812 55.558594 93.605469 55.558594 C 93.699219 55.558594 93.820312 55.632812 93.867188 55.71875 C 93.949219 55.867188 93.960938 55.867188 93.96875 55.671875 C 93.96875 55.261719 92.550781 53.976562 91.664062 53.574219 C 91.355469 53.433594 90.949219 53.378906 89.992188 53.332031 C 88.207031 53.246094 87.167969 53.359375 86.054688 53.742188 C 85.554688 53.910156 85.09375 54.03125 85.027344 54.011719 C 84.960938 53.984375 84.777344 53.777344 84.609375 53.554688 C 84.433594 53.320312 84.222656 53.117188 84.128906 53.089844 C 83.972656 53.03125 83.589844 52.578125 83.589844 52.4375 C 83.589844 52.398438 83.933594 52.027344 84.359375 51.605469 C 84.972656 51 85.175781 50.738281 85.34375 50.292969 C 85.964844 48.699219 86.09375 48.316406 86.09375 48.128906 C 86.09375 48.019531 86.167969 47.804688 86.25 47.652344 C 86.410156 47.382812 86.410156 47.367188 86.25 47.1875 C 86.101562 47.019531 86.113281 47.003906 86.511719 46.648438 C 87.269531 45.996094 87.445312 45.453125 87.574219 43.347656 C 87.648438 42.117188 87.78125 41.578125 88.011719 41.578125 C 88.074219 41.578125 88.195312 41.472656 88.28125 41.34375 C 88.363281 41.210938 88.464844 41.109375 88.511719 41.109375 C 88.558594 41.109375 88.59375 41.4375 88.59375 41.828125 C 88.605469 42.226562 88.660156 42.722656 88.734375 42.929688 C 88.808594 43.132812 88.875 43.375 88.875 43.457031 C 88.875 43.550781 88.921875 43.625 88.972656 43.625 C 89.039062 43.625 89.046875 43.5625 89.011719 43.457031 C 88.964844 43.375 88.921875 42.863281 88.890625 42.332031 C 88.84375 41.195312 88.964844 40.597656 89.242188 40.671875 C 89.410156 40.71875 89.410156 40.699219 89.28125 40.503906 C 89.160156 40.328125 89.160156 40.195312 89.234375 39.75 C 89.289062 39.449219 89.335938 39.199219 89.335938 39.179688 C 89.335938 39.164062 89.375 39.152344 89.417969 39.152344 C 89.464844 39.152344 89.59375 39.339844 89.707031 39.570312 C 89.929688 40.039062 90.53125 40.753906 90.539062 40.5625 C 90.539062 40.355469 90.003906 39.523438 89.699219 39.273438 C 89.398438 39.011719 89.375 38.855469 89.558594 38.171875 L 89.679688 37.707031 L 89.800781 38.265625 C 89.871094 38.574219 89.917969 38.890625 89.902344 38.964844 C 89.882812 39.089844 89.890625 39.089844 89.976562 38.964844 C 90.125 38.753906 90.097656 38.433594 89.871094 37.921875 C 89.6875 37.484375 89.679688 37.390625 89.78125 36.726562 C 89.835938 36.339844 89.855469 35.917969 89.828125 35.816406 C 89.789062 35.648438 89.828125 35.609375 90.132812 35.554688 C 90.335938 35.527344 90.644531 35.421875 90.816406 35.320312 C 90.996094 35.226562 91.542969 34.957031 92.023438 34.726562 C 92.914062 34.285156 93.507812 33.820312 93.757812 33.34375 C 94.117188 32.636719 94.617188 30.660156 94.617188 29.90625 C 94.617188 29.363281 94.820312 29.085938 95.210938 29.085938 C 95.738281 29.085938 96.453125 28.152344 96.324219 27.628906 C 96.285156 27.5 96.3125 27.339844 96.378906 27.265625 C 96.46875 27.15625 96.480469 26.847656 96.433594 26.027344 C 96.332031 24.144531 96.277344 23.863281 95.933594 23.464844 C 95.738281 23.238281 95.496094 23.257812 94.609375 23.585938 C 94.183594 23.734375 93.820312 23.863281 93.8125 23.863281 C 93.746094 23.863281 93.792969 23.519531 93.859375 23.4375 C 93.980469 23.304688 94.152344 22.617188 94.152344 22.28125 C 94.152344 21.945312 93.949219 21.730469 93.625 21.71875 C 93.515625 21.71875 93.402344 21.683594 93.375 21.636719 C 93.339844 21.589844 93.015625 21.429688 92.644531 21.292969 C 92.28125 21.144531 91.882812 20.976562 91.761719 20.898438 C 91.652344 20.824219 91.382812 20.761719 91.160156 20.75 C 90.949219 20.742188 90.625 20.65625 90.429688 20.554688 C 90.039062 20.359375 89.945312 20.378906 88.34375 20.964844 L 87.296875 21.347656 L 86.945312 20.855469 C 86.5 20.257812 86.425781 20.191406 85.90625 19.984375 C 85.285156 19.746094 84.640625 19.78125 84.359375 20.078125 C 84.242188 20.210938 84.074219 20.320312 84 20.320312 C 83.925781 20.320312 83.664062 20.472656 83.433594 20.648438 C 83.054688 20.9375 82.953125 20.976562 82.433594 20.976562 C 82.117188 20.976562 81.46875 20.890625 80.988281 20.777344 C 80.507812 20.675781 79.78125 20.527344 79.375 20.453125 C 78.246094 20.246094 78.28125 20.273438 78.496094 19.921875 C 78.597656 19.753906 78.679688 19.53125 78.679688 19.425781 C 78.679688 19.316406 78.734375 19.082031 78.808594 18.914062 C 78.976562 18.503906 78.902344 18.09375 78.632812 17.992188 C 78.347656 17.878906 78.320312 17.777344 78.347656 16.628906 C 78.363281 15.261719 78.726562 14.066406 79.300781 13.414062 C 79.523438 13.171875 79.792969 12.957031 79.914062 12.921875 C 80.125 12.875 80.347656 12.425781 80.347656 12.042969 C 80.347656 11.886719 80.273438 11.828125 80.003906 11.78125 C 79.8125 11.746094 79.503906 11.597656 79.328125 11.457031 C 79.152344 11.308594 78.921875 11.1875 78.820312 11.1875 C 78.71875 11.1875 78.496094 11.101562 78.320312 10.992188 C 77.984375 10.785156 77.578125 10.792969 76.808594 11.019531 C 76.53125 11.101562 76.445312 11.09375 76.316406 10.972656 C 76.242188 10.886719 76.019531 10.792969 75.828125 10.757812 C 75.34375 10.671875 75.160156 10.550781 75.160156 10.347656 C 75.160156 10.171875 75.09375 10.160156 74.222656 10.160156 C 73.417969 10.160156 73.222656 10.191406 72.832031 10.394531 C 72.175781 10.71875 71.378906 11.53125 71.3125 11.921875 C 71.285156 12.101562 71.148438 12.378906 71.007812 12.539062 C 70.867188 12.707031 70.710938 12.910156 70.65625 13.003906 C 70.574219 13.152344 70.527344 13.160156 70.25 13.070312 C 69.777344 12.902344 69.5625 12.929688 69.304688 13.207031 C 68.988281 13.542969 68.867188 13.863281 68.765625 14.699219 C 68.65625 15.597656 68.859375 16.480469 69.304688 16.996094 C 69.433594 17.144531 69.433594 17.207031 69.292969 17.65625 C 69.210938 17.925781 69.136719 18.242188 69.136719 18.355469 C 69.136719 18.46875 69.089844 18.644531 69.035156 18.746094 C 68.953125 18.914062 68.878906 18.921875 68.414062 18.867188 C 68.125 18.828125 67.738281 18.753906 67.5625 18.691406 C 67.386719 18.625 66.921875 18.523438 66.542969 18.457031 C 66.164062 18.394531 65.78125 18.28125 65.699219 18.207031 C 65.617188 18.140625 65.246094 17.980469 64.875 17.851562 C 64.078125 17.582031 63.945312 17.488281 64.199219 17.355469 C 64.53125 17.171875 65.570312 16.023438 65.921875 15.457031 C 66.335938 14.757812 66.375 14.355469 66.03125 14.039062 C 65.761719 13.789062 65.28125 13.664062 64.910156 13.757812 L 64.660156 13.824219 L 64.726562 13.273438 C 64.761719 12.976562 64.882812 12.539062 64.996094 12.304688 C 65.199219 11.867188 65.265625 11.28125 65.253906 9.84375 C 65.253906 9.183594 65.199219 8.867188 65.003906 8.316406 C 64.820312 7.773438 64.773438 7.503906 64.800781 7.105469 C 64.863281 6.339844 64.761719 6.171875 63.910156 5.628906 C 63.058594 5.089844 62.964844 5.042969 62.328125 4.929688 C 61.390625 4.773438 60.195312 4.476562 59.917969 4.34375 C 59.769531 4.277344 59.445312 4.167969 59.195312 4.109375 C 58.65625 3.988281 56.785156 3.972656 56.367188 4.09375 C 56.15625 4.15625 56.042969 4.148438 55.980469 4.074219 C 55.347656 3.253906 54.980469 3.003906 54.820312 3.261719 Z M 52.53125 14.132812 C 52.910156 14.261719 53.476562 14.414062 53.78125 14.457031 C 54.089844 14.515625 54.414062 14.589844 54.515625 14.644531 C 54.71875 14.757812 54.738281 15.214844 54.542969 15.382812 C 54.460938 15.457031 54.402344 15.652344 54.402344 15.894531 C 54.402344 16.265625 54.433594 16.3125 54.820312 16.539062 C 55.226562 16.78125 55.367188 17.078125 55.125 17.179688 C 55.0625 17.207031 55.097656 17.234375 55.21875 17.234375 C 55.535156 17.246094 55.460938 17.402344 55.105469 17.46875 C 54.691406 17.554688 54.023438 18.011719 53.53125 18.5625 C 53.308594 18.8125 53.097656 19.015625 53.070312 19.015625 C 53.015625 19.015625 52.078125 17.070312 51.890625 16.566406 C 51.800781 16.285156 51.792969 16.136719 51.882812 15.800781 C 52.03125 15.230469 52.023438 14.699219 51.855469 14.292969 C 51.652344 13.796875 51.605469 13.804688 52.53125 14.132812 Z M 48.425781 15.445312 C 48.464844 15.847656 48.53125 16.191406 48.558594 16.21875 C 48.59375 16.246094 48.714844 16.5 48.835938 16.789062 C 49.011719 17.226562 49.101562 17.347656 49.429688 17.507812 C 50.261719 17.90625 50.335938 17.859375 49.722656 17.320312 C 49.25 16.902344 48.898438 16.292969 48.964844 16.023438 C 48.992188 15.929688 48.957031 15.8125 48.882812 15.746094 C 48.808594 15.691406 48.75 15.492188 48.75 15.324219 C 48.75 15.074219 48.789062 15.007812 48.9375 15.007812 C 49.039062 15.007812 49.148438 15 49.175781 14.980469 C 49.214844 14.972656 49.371094 15.203125 49.53125 15.503906 C 49.761719 15.921875 49.9375 16.117188 50.375 16.398438 C 50.679688 16.585938 50.976562 16.84375 51.039062 16.976562 C 52.246094 19.492188 52.644531 20.488281 52.625 20.964844 C 52.617188 21.265625 52.664062 21.402344 52.855469 21.609375 C 53.105469 21.871094 53.367188 22.4375 54.097656 24.328125 C 54.496094 25.367188 55.144531 27.070312 55.144531 27.089844 C 55.144531 27.097656 54.679688 27.097656 54.117188 27.089844 C 53.097656 27.078125 53.089844 27.078125 52.863281 27.339844 C 52.746094 27.480469 52.644531 27.648438 52.644531 27.714844 C 52.644531 27.78125 52.71875 27.734375 52.808594 27.621094 C 52.929688 27.472656 53.050781 27.425781 53.292969 27.453125 C 53.46875 27.460938 53.664062 27.480469 53.726562 27.492188 C 53.792969 27.5 53.820312 27.566406 53.78125 27.648438 C 53.734375 27.769531 53.753906 27.789062 53.902344 27.707031 C 54.164062 27.574219 54.535156 27.734375 54.46875 27.957031 C 54.441406 28.089844 54.46875 28.117188 54.597656 28.089844 C 54.859375 28.011719 55.070312 28.234375 55.007812 28.496094 C 54.96875 28.664062 54.996094 28.710938 55.144531 28.710938 C 55.40625 28.710938 55.792969 29.074219 55.730469 29.253906 C 55.691406 29.347656 55.710938 29.375 55.773438 29.328125 C 55.839844 29.289062 55.90625 29.363281 55.933594 29.523438 C 55.960938 29.660156 56.035156 29.953125 56.089844 30.15625 C 56.144531 30.363281 56.21875 30.800781 56.257812 31.136719 C 56.304688 31.472656 56.40625 32.097656 56.480469 32.535156 C 56.5625 32.972656 56.65625 33.839844 56.691406 34.464844 C 56.738281 35.496094 56.730469 35.609375 56.589844 35.609375 C 56.425781 35.609375 56.199219 35.285156 55.839844 34.527344 C 55.710938 34.257812 55.292969 33.707031 54.902344 33.289062 C 54.300781 32.644531 54.15625 32.535156 53.902344 32.535156 C 53.726562 32.535156 53.53125 32.457031 53.441406 32.355469 C 53.292969 32.199219 53.308594 32.171875 53.664062 31.796875 C 53.867188 31.582031 54.144531 31.367188 54.273438 31.320312 C 54.589844 31.199219 55.117188 31.199219 55.359375 31.332031 C 55.5625 31.441406 55.5625 31.441406 55.386719 31.238281 C 55.152344 30.984375 54.652344 30.976562 54.078125 31.226562 C 53.839844 31.332031 53.625 31.414062 53.605469 31.414062 C 53.578125 31.414062 53.589844 31.273438 53.617188 31.097656 C 53.707031 30.613281 53.550781 30.632812 53.152344 31.144531 C 52.949219 31.394531 52.738281 31.601562 52.679688 31.601562 C 52.550781 31.601562 52.457031 31.386719 52.457031 31.117188 C 52.457031 31.015625 52.320312 30.773438 52.152344 30.566406 C 51.820312 30.175781 51.679688 29.921875 51.308594 29 C 51.113281 28.523438 51.078125 28.328125 51.125 27.957031 C 51.199219 27.371094 51.003906 26.8125 50.566406 26.398438 C 50.226562 26.082031 50.058594 26.054688 49.140625 26.167969 C 48.734375 26.214844 48.628906 26.269531 48.519531 26.464844 C 48.457031 26.597656 48.261719 26.78125 48.085938 26.875 C 47.667969 27.109375 47.214844 27.742188 47.113281 28.246094 C 47.046875 28.582031 46.964844 28.710938 46.648438 28.9375 C 46.378906 29.121094 46.203125 29.1875 46.046875 29.148438 C 45.710938 29.066406 44.691406 28.347656 44.371094 27.964844 C 44.164062 27.734375 43.960938 27.601562 43.730469 27.554688 C 43.535156 27.519531 43.351562 27.433594 43.3125 27.371094 C 43.265625 27.292969 43.136719 27.21875 43.007812 27.203125 C 42.8125 27.183594 42.785156 27.125 42.804688 26.921875 C 42.820312 26.699219 42.765625 26.632812 42.367188 26.4375 C 41.976562 26.230469 41.429688 25.683594 41.535156 25.597656 C 41.550781 25.589844 41.792969 25.484375 42.0625 25.375 C 42.332031 25.261719 42.738281 25.046875 42.96875 24.890625 C 43.292969 24.675781 43.523438 24.601562 44.023438 24.554688 C 44.378906 24.515625 44.648438 24.453125 44.617188 24.40625 C 44.589844 24.359375 44.371094 24.347656 44.136719 24.386719 C 43.898438 24.421875 43.71875 24.421875 43.746094 24.40625 C 43.777344 24.375 44.128906 24.070312 44.535156 23.726562 C 44.941406 23.371094 45.488281 22.886719 45.742188 22.644531 C 46.601562 21.8125 48.9375 20.042969 49.160156 20.042969 C 49.222656 20.042969 49.390625 19.914062 49.546875 19.753906 C 49.695312 19.59375 49.964844 19.390625 50.140625 19.289062 C 50.621094 19.027344 50.875 18.785156 50.984375 18.457031 C 51.125 18.066406 51.019531 17.992188 50.816406 18.347656 C 50.726562 18.515625 50.421875 18.765625 50.113281 18.941406 C 49.808594 19.109375 49.289062 19.484375 48.957031 19.761719 C 48.039062 20.527344 47.390625 21.011719 46.714844 21.421875 C 46.082031 21.804688 44.980469 22.28125 44.730469 22.28125 C 44.648438 22.28125 44.359375 22.402344 44.089844 22.550781 C 43.703125 22.773438 41.773438 23.492188 41.582031 23.492188 C 41.550781 23.492188 41.46875 23.378906 41.394531 23.230469 C 41.300781 23.054688 41.28125 22.820312 41.328125 22.421875 C 41.402344 21.691406 41.292969 20.152344 41.109375 19.410156 C 41.023438 19.089844 40.988281 18.785156 41.015625 18.738281 C 41.117188 18.570312 40.875 17.90625 40.691406 17.851562 C 40.402344 17.757812 40.46875 17.675781 41.089844 17.367188 C 41.402344 17.207031 41.867188 16.910156 42.117188 16.707031 C 42.359375 16.5 42.691406 16.304688 42.847656 16.277344 C 43.007812 16.238281 43.246094 16.109375 43.386719 15.976562 C 43.617188 15.753906 43.703125 15.746094 44.980469 15.691406 C 46.035156 15.644531 46.371094 15.660156 46.480469 15.753906 C 46.582031 15.835938 46.65625 15.847656 46.695312 15.792969 C 46.730469 15.734375 46.945312 15.644531 47.175781 15.578125 C 47.425781 15.503906 47.714844 15.324219 47.917969 15.101562 C 48.09375 14.914062 48.269531 14.746094 48.304688 14.738281 C 48.335938 14.738281 48.398438 15.054688 48.425781 15.445312 Z M 63.957031 15.578125 C 64.097656 15.855469 63.910156 16.507812 63.585938 16.816406 C 63.308594 17.089844 62.835938 17.28125 62.742188 17.179688 C 62.605469 17.023438 62.34375 15.746094 62.4375 15.652344 C 62.527344 15.558594 63.207031 15.417969 63.640625 15.390625 C 63.761719 15.382812 63.894531 15.464844 63.957031 15.578125 Z M 54.867188 15.820312 C 54.96875 16.210938 55.488281 16.828125 55.785156 16.921875 C 56.050781 17.003906 56.027344 17.152344 55.746094 17.152344 C 55.609375 17.152344 55.480469 17.078125 55.414062 16.9375 C 55.359375 16.828125 55.117188 16.566406 54.894531 16.359375 C 54.496094 16.003906 54.488281 15.976562 54.597656 15.726562 C 54.664062 15.585938 54.726562 15.476562 54.738281 15.476562 C 54.753906 15.476562 54.8125 15.632812 54.867188 15.820312 Z M 59.261719 17.980469 C 59.417969 18.113281 59.65625 18.019531 59.785156 17.796875 C 59.890625 17.601562 60.371094 17.554688 60.480469 17.722656 C 60.511719 17.777344 60.640625 17.804688 60.769531 17.777344 C 60.890625 17.757812 61.046875 17.796875 61.121094 17.859375 C 61.203125 17.945312 61.269531 17.953125 61.308594 17.898438 C 61.382812 17.777344 61.539062 17.777344 61.539062 17.898438 C 61.539062 17.945312 61.601562 18.066406 61.6875 18.167969 C 61.945312 18.46875 62.402344 20.042969 62.972656 22.558594 C 63.105469 23.144531 63.253906 23.800781 63.300781 24.003906 C 63.390625 24.367188 63.882812 27.265625 63.984375 28.03125 C 64.019531 28.292969 64.003906 28.433594 63.917969 28.460938 C 63.835938 28.488281 63.847656 28.535156 63.957031 28.628906 C 64.058594 28.722656 64.140625 29.058594 64.214844 29.738281 C 64.28125 30.277344 64.367188 31.089844 64.417969 31.554688 C 64.476562 32.011719 64.523438 32.488281 64.539062 32.597656 C 64.558594 32.71875 64.511719 32.859375 64.449219 32.914062 C 64.320312 33.019531 64.207031 32.953125 63.4375 32.320312 C 63.1875 32.105469 63.039062 32.058594 62.769531 32.085938 C 62.429688 32.113281 62.410156 32.097656 62.160156 31.601562 C 62.019531 31.320312 61.6875 30.894531 61.417969 30.640625 C 61.148438 30.398438 60.667969 29.941406 60.332031 29.617188 C 60 29.300781 59.566406 28.953125 59.359375 28.851562 C 58.796875 28.570312 57.925781 27.929688 57.507812 27.507812 C 57.136719 27.117188 56.804688 27.023438 56.453125 27.21875 C 56.183594 27.359375 56.015625 27.144531 55.765625 26.335938 C 55.636719 25.925781 55.394531 25.273438 55.238281 24.890625 C 55.070312 24.507812 54.800781 23.808594 54.632812 23.351562 C 54.460938 22.886719 54.070312 21.839844 53.765625 21.023438 C 53.449219 20.199219 53.199219 19.484375 53.199219 19.425781 C 53.199219 19.210938 54.5625 18.019531 54.988281 17.851562 C 55.414062 17.691406 56.472656 17.691406 57.265625 17.859375 C 57.738281 17.953125 58.914062 17.636719 59 17.394531 C 59.054688 17.234375 59.074219 17.265625 59.101562 17.542969 C 59.121094 17.730469 59.195312 17.925781 59.261719 17.980469 Z M 64.179688 17.890625 C 64.4375 17.980469 64.820312 18.09375 65.039062 18.132812 C 65.273438 18.167969 65.523438 18.289062 65.644531 18.410156 C 65.753906 18.53125 66.449219 18.941406 67.191406 19.324219 C 68.488281 19.976562 69.238281 20.226562 69.925781 20.226562 C 70.144531 20.226562 70.285156 20.3125 70.5625 20.648438 L 70.90625 21.078125 L 70.527344 21.535156 C 70.3125 21.785156 69.878906 22.53125 69.542969 23.175781 C 69.21875 23.828125 68.785156 24.589844 68.578125 24.863281 C 68.347656 25.179688 68.210938 25.46875 68.210938 25.636719 C 68.210938 26.175781 68.070312 26.355469 67.515625 26.523438 C 67.226562 26.597656 66.867188 26.753906 66.699219 26.847656 C 66.53125 26.949219 66.335938 27.035156 66.261719 27.035156 C 66.179688 27.035156 65.976562 27.15625 65.800781 27.292969 C 65.394531 27.628906 64.890625 27.921875 64.835938 27.863281 C 64.761719 27.789062 64.597656 26.644531 64.597656 26.195312 C 64.597656 25.960938 64.492188 25.273438 64.367188 24.65625 C 64.03125 22.996094 63.660156 21.097656 63.566406 20.460938 C 63.519531 20.152344 63.402344 19.652344 63.300781 19.34375 C 63.195312 19.035156 63.09375 18.617188 63.058594 18.410156 C 63 18.058594 63.019531 18.027344 63.316406 17.878906 C 63.707031 17.683594 63.640625 17.683594 64.179688 17.890625 Z M 84.621094 21.125 C 84.824219 21.691406 84.839844 22.296875 84.667969 22.632812 C 84.59375 22.773438 84.5 23.054688 84.472656 23.25 C 84.433594 23.445312 84.285156 23.734375 84.148438 23.902344 C 84.007812 24.0625 83.703125 24.5625 83.453125 25.03125 C 83.210938 25.484375 82.941406 25.972656 82.851562 26.101562 C 82.765625 26.230469 82.570312 26.523438 82.414062 26.753906 C 81.933594 27.480469 81.832031 27.742188 81.589844 29.011719 C 81.394531 30.0625 81.183594 32.589844 81.191406 33.792969 L 81.191406 34.070312 L 81.320312 33.765625 C 81.480469 33.390625 81.71875 33.28125 81.878906 33.503906 C 82.042969 33.726562 81.878906 34.15625 81.460938 34.574219 C 81.023438 35.023438 80.023438 35.796875 79.894531 35.796875 C 79.839844 35.796875 79.792969 35.648438 79.792969 35.453125 C 79.792969 34.996094 79.671875 35.144531 79.609375 35.675781 C 79.5625 36.09375 79.523438 36.140625 78.773438 36.738281 L 77.984375 37.363281 L 77.753906 37.140625 C 77.214844 36.644531 75.734375 36.308594 75.046875 36.53125 C 74.882812 36.589844 74.4375 36.71875 74.058594 36.839844 C 73.324219 37.054688 72.933594 37.363281 72.933594 37.726562 C 72.933594 37.957031 72.425781 38.59375 72.238281 38.59375 C 72.175781 38.59375 72.074219 38.539062 72.019531 38.460938 C 71.871094 38.285156 72.027344 36.496094 72.371094 34.539062 C 72.527344 33.664062 72.65625 32.824219 72.65625 32.664062 C 72.65625 32.246094 72.804688 32.160156 73.324219 32.300781 C 73.566406 32.355469 73.890625 32.394531 74.046875 32.367188 C 74.195312 32.347656 74.382812 32.375 74.457031 32.429688 C 74.546875 32.515625 74.59375 32.503906 74.640625 32.394531 C 74.703125 32.21875 74.917969 32.21875 75.066406 32.394531 C 75.167969 32.515625 75.195312 32.515625 75.296875 32.375 C 75.417969 32.21875 75.429688 32.21875 75.605469 32.375 C 75.753906 32.515625 75.800781 32.515625 75.890625 32.410156 C 76 32.273438 76.457031 32.3125 76.457031 32.449219 C 76.457031 32.496094 76.503906 32.535156 76.550781 32.535156 C 76.753906 32.535156 76.640625 31.761719 76.355469 31.199219 C 75.984375 30.472656 75.789062 30.210938 75.335938 29.90625 C 75.132812 29.773438 74.835938 29.542969 74.667969 29.394531 C 74.503906 29.253906 74.148438 29.027344 73.878906 28.90625 C 73.621094 28.777344 73.398438 28.628906 73.398438 28.570312 C 73.398438 28.515625 73.484375 28.089844 73.574219 27.628906 C 73.84375 26.382812 74.046875 25.132812 74.113281 24.359375 C 74.140625 23.984375 74.195312 23.648438 74.234375 23.632812 C 74.324219 23.574219 75.101562 24.003906 75.253906 24.191406 C 75.335938 24.292969 75.402344 24.300781 75.53125 24.21875 C 75.695312 24.105469 75.722656 24.117188 77.292969 24.46875 C 77.792969 24.582031 78.207031 24.609375 78.773438 24.574219 C 79.375 24.535156 79.625 24.554688 79.828125 24.65625 C 80.164062 24.835938 80.164062 24.835938 80.164062 24.609375 C 80.164062 24.460938 80.097656 24.421875 79.828125 24.421875 C 79.570312 24.421875 79.503906 24.394531 79.550781 24.285156 C 79.578125 24.207031 79.5625 24.144531 79.523438 24.144531 C 79.476562 24.144531 79.421875 24.191406 79.402344 24.246094 C 79.28125 24.601562 77.140625 24.003906 76.679688 23.480469 C 76.457031 23.230469 76.59375 23.136719 76.855469 23.371094 C 77.140625 23.640625 77.613281 23.863281 77.863281 23.863281 C 78.050781 23.855469 78.042969 23.835938 77.773438 23.695312 C 77.292969 23.4375 76.632812 22.820312 76.503906 22.484375 C 76.429688 22.316406 76.308594 22.160156 76.226562 22.128906 C 76.152344 22.101562 76.085938 22.019531 76.085938 21.953125 C 76.085938 21.785156 76.585938 21.683594 76.800781 21.792969 C 76.992188 21.90625 78.253906 22.09375 78.753906 22.09375 C 78.941406 22.09375 79.226562 22.019531 79.375 21.933594 C 79.570312 21.832031 80.117188 21.746094 81.152344 21.664062 C 82.441406 21.5625 82.710938 21.515625 83.101562 21.300781 C 83.621094 21.03125 83.898438 20.855469 83.960938 20.777344 C 84.027344 20.695312 84.277344 20.609375 84.367188 20.640625 C 84.414062 20.648438 84.535156 20.863281 84.621094 21.125 Z M 53.015625 21.523438 C 53.003906 21.617188 52.957031 21.589844 52.875 21.441406 C 52.699219 21.132812 52.707031 20.976562 52.875 21.199219 C 52.949219 21.300781 53.015625 21.449219 53.015625 21.523438 Z M 72.824219 23.257812 C 73.074219 23.648438 73.09375 24.421875 72.890625 25.570312 C 72.816406 25.988281 72.6875 26.746094 72.601562 27.238281 C 72.519531 27.742188 72.40625 28.179688 72.351562 28.21875 C 72.238281 28.292969 72.195312 28.300781 71.667969 28.328125 C 71.277344 28.347656 70.859375 28.710938 70.730469 29.167969 C 70.664062 29.382812 70.488281 29.644531 70.3125 29.785156 C 70.15625 29.914062 69.953125 30.082031 69.867188 30.15625 C 69.765625 30.230469 69.683594 30.25 69.628906 30.195312 C 69.488281 30.054688 69.246094 30.195312 69.050781 30.519531 C 68.8125 30.902344 68.488281 31.199219 68.257812 31.246094 C 68.152344 31.265625 68.035156 31.367188 67.980469 31.480469 C 67.886719 31.703125 67.570312 31.882812 67.273438 31.882812 C 67.171875 31.882812 66.976562 31.964844 66.839844 32.058594 C 66.578125 32.246094 65.46875 32.570312 65.335938 32.488281 C 65.300781 32.46875 65.246094 32.113281 65.21875 31.722656 C 65.152344 30.882812 64.996094 29.308594 64.910156 28.738281 C 64.863281 28.402344 64.882812 28.347656 65.050781 28.292969 C 65.160156 28.265625 65.484375 28.011719 65.78125 27.742188 C 66.308594 27.246094 66.773438 27.023438 67.886719 26.707031 C 68.191406 26.625 68.609375 26.4375 68.8125 26.296875 C 69.015625 26.15625 69.425781 25.914062 69.710938 25.773438 C 70.460938 25.394531 71.730469 24.144531 72.222656 23.285156 C 72.332031 23.089844 72.472656 22.933594 72.519531 22.933594 C 72.574219 22.933594 72.703125 23.082031 72.824219 23.257812 Z M 32.757812 24.824219 C 33.167969 25.046875 33.507812 25.273438 33.527344 25.328125 C 33.59375 25.515625 32.777344 25.253906 32.574219 25.03125 C 32.460938 24.910156 32.34375 24.835938 32.3125 24.863281 C 32.25 24.925781 31.886719 24.621094 31.886719 24.496094 C 31.886719 24.367188 32 24.414062 32.757812 24.824219 Z M 57.371094 30.914062 C 57.371094 30.984375 57.332031 31.042969 57.277344 31.042969 C 57.230469 31.042969 57.183594 30.957031 57.183594 30.847656 C 57.183594 30.746094 57.230469 30.6875 57.277344 30.714844 C 57.332031 30.746094 57.371094 30.839844 57.371094 30.914062 Z M 57.886719 31.285156 C 58.054688 31.394531 58.089844 31.472656 58.015625 31.554688 C 57.941406 31.648438 58 31.742188 58.257812 31.9375 C 58.636719 32.234375 58.777344 32.503906 58.648438 32.738281 C 58.582031 32.871094 58.601562 32.90625 58.75 32.90625 C 58.859375 32.90625 59.074219 33.027344 59.242188 33.175781 C 59.5 33.410156 59.519531 33.464844 59.417969 33.597656 C 59.304688 33.726562 59.324219 33.746094 59.582031 33.746094 C 59.75 33.746094 60.011719 33.808594 60.167969 33.894531 L 60.445312 34.042969 L 60.121094 34.3125 C 59.734375 34.632812 59.3125 35.433594 59.3125 35.84375 C 59.3125 36.140625 59.574219 36.449219 60.046875 36.710938 C 60.25 36.832031 60.257812 36.820312 60.195312 36.664062 C 60.148438 36.570312 60.113281 36.28125 60.101562 36.03125 C 60.101562 35.664062 60.140625 35.515625 60.296875 35.359375 C 60.417969 35.246094 60.539062 35.050781 60.566406 34.941406 C 60.648438 34.679688 60.878906 34.398438 61.019531 34.398438 C 61.363281 34.40625 61.910156 35.542969 61.910156 36.246094 C 61.910156 36.4375 61.957031 36.851562 62.011719 37.15625 C 62.214844 38.304688 62.429688 38.675781 63.113281 39.078125 C 63.734375 39.441406 64.375 40.039062 64.503906 40.382812 C 64.566406 40.550781 64.734375 40.921875 64.882812 41.210938 C 65.132812 41.699219 65.144531 41.773438 65.050781 42.191406 C 65.003906 42.441406 64.921875 42.824219 64.882812 43.050781 C 64.78125 43.609375 64.699219 43.664062 64.261719 43.476562 C 63.800781 43.273438 62.734375 43.28125 62.242188 43.488281 C 61.957031 43.609375 61.796875 43.617188 61.457031 43.542969 C 60.703125 43.382812 59.25 43.300781 58.203125 43.375 C 57.878906 43.394531 57.878906 43.394531 57.886719 43.003906 C 57.886719 42.648438 57.859375 42.59375 57.589844 42.460938 C 57.25 42.304688 57.210938 42.125 57.257812 40.765625 C 57.285156 39.9375 57.296875 39.90625 57.535156 39.824219 C 57.675781 39.777344 57.878906 39.65625 58 39.5625 L 58.210938 39.386719 L 57.769531 38.359375 C 57.351562 37.398438 57.324219 37.289062 57.339844 36.625 C 57.359375 36.234375 57.421875 35.628906 57.5 35.273438 C 57.574219 34.921875 57.601562 34.613281 57.554688 34.585938 C 57.371094 34.464844 57.082031 31.359375 57.25 31.199219 C 57.351562 31.089844 57.648438 31.125 57.886719 31.285156 Z M 71.109375 31.621094 C 71.324219 31.730469 71.5625 31.855469 71.636719 31.882812 C 71.722656 31.917969 71.777344 32.066406 71.769531 32.21875 C 71.757812 32.691406 71.535156 34.144531 71.40625 34.632812 C 71.285156 35.097656 70.933594 36.933594 70.878906 37.382812 C 70.851562 37.652344 70.757812 37.652344 69.953125 37.445312 C 69.292969 37.277344 68.515625 36.820312 67.921875 36.246094 C 67.671875 36.003906 67.328125 35.730469 67.164062 35.648438 C 67.003906 35.5625 66.773438 35.414062 66.671875 35.3125 L 66.476562 35.132812 L 66.976562 34.371094 C 67.246094 33.949219 67.515625 33.4375 67.570312 33.234375 C 67.710938 32.71875 67.96875 32.226562 68.300781 31.84375 C 68.578125 31.527344 68.578125 31.527344 69.425781 31.527344 C 69.886719 31.527344 70.285156 31.5 70.324219 31.472656 C 70.421875 31.359375 70.730469 31.414062 71.109375 31.621094 Z M 67.246094 33.234375 C 67.207031 33.335938 67.136719 33.363281 67.015625 33.328125 C 66.875 33.28125 66.847656 33.308594 66.886719 33.457031 C 66.914062 33.570312 66.800781 33.808594 66.609375 34.109375 C 66.429688 34.371094 66.261719 34.621094 66.246094 34.679688 C 66.226562 34.742188 66.117188 34.734375 65.929688 34.660156 C 65.691406 34.574219 65.625 34.472656 65.550781 34.15625 C 65.457031 33.765625 65.46875 33.746094 65.808594 33.410156 C 66.003906 33.214844 66.191406 33.085938 66.21875 33.113281 C 66.246094 33.140625 66.402344 33.039062 66.550781 32.878906 L 66.839844 32.597656 L 67.070312 32.839844 C 67.21875 32.992188 67.28125 33.128906 67.246094 33.234375 Z M 63.808594 33.09375 C 63.894531 33.34375 63.472656 33.902344 63.1875 33.949219 C 62.929688 33.988281 62.464844 33.671875 62.464844 33.457031 C 62.464844 33.289062 63.226562 32.945312 63.382812 33.039062 C 63.429688 33.074219 63.492188 33.054688 63.53125 33 C 63.625 32.851562 63.742188 32.886719 63.808594 33.09375 Z M 62.585938 37.792969 C 62.511719 37.894531 62.28125 37.585938 62.28125 37.390625 C 62.28125 37.289062 62.335938 37.308594 62.457031 37.476562 C 62.558594 37.597656 62.613281 37.746094 62.585938 37.792969 Z M 66.449219 37.707031 C 66.617188 37.902344 66.496094 38.125 66.21875 38.125 C 66.023438 38.125 65.984375 38.078125 65.984375 37.847656 C 65.984375 37.632812 66.03125 37.566406 66.164062 37.566406 C 66.253906 37.566406 66.382812 37.632812 66.449219 37.707031 Z M 64.585938 37.8125 L 65.160156 37.875 L 65.117188 39.003906 C 65.070312 40.046875 64.957031 40.421875 64.820312 40.046875 C 64.792969 39.964844 64.707031 39.898438 64.644531 39.898438 C 64.566406 39.898438 64.429688 39.777344 64.328125 39.628906 C 64.214844 39.476562 63.910156 39.207031 63.640625 39.03125 C 63.085938 38.660156 62.972656 38.546875 62.902344 38.238281 C 62.789062 37.78125 63.234375 37.671875 64.585938 37.8125 Z M 66.820312 38.613281 C 67.070312 38.882812 67.050781 39.078125 66.773438 39.339844 C 66.644531 39.460938 66.542969 39.609375 66.542969 39.675781 C 66.542969 39.730469 66.476562 39.84375 66.394531 39.90625 C 66.308594 39.972656 66.199219 40.140625 66.136719 40.273438 C 66.050781 40.46875 66.03125 40.382812 66.003906 39.683594 C 65.976562 38.742188 66.050781 38.585938 66.609375 38.414062 C 66.617188 38.40625 66.707031 38.5 66.820312 38.613281 Z M 54.691406 38.964844 C 54.902344 39.089844 54.921875 39.554688 54.726562 39.898438 C 54.632812 40.074219 54.589844 40.09375 54.550781 39.992188 C 54.414062 39.570312 54.21875 38.957031 54.21875 38.921875 C 54.21875 38.835938 54.507812 38.875 54.691406 38.964844 Z M 55.894531 39.542969 C 56.210938 39.710938 56.480469 39.890625 56.488281 39.945312 C 56.507812 39.992188 56.542969 40.597656 56.570312 41.277344 L 56.617188 42.519531 L 56.109375 42.75 C 55.832031 42.871094 55.589844 42.976562 55.570312 42.976562 C 55.507812 42.976562 55.238281 42.164062 55.136719 41.671875 C 55.082031 41.390625 54.996094 41.101562 54.960938 41.027344 C 54.921875 40.960938 54.96875 40.644531 55.070312 40.328125 C 55.171875 40.019531 55.238281 39.644531 55.210938 39.496094 C 55.191406 39.355469 55.210938 39.246094 55.257812 39.246094 C 55.292969 39.246094 55.578125 39.375 55.894531 39.542969 Z M 51.113281 40.828125 C 51.152344 40.886719 51.355469 41.015625 51.585938 41.121094 C 52.363281 41.492188 51.875 41.613281 51.039062 41.257812 C 50.734375 41.128906 50.707031 41.082031 50.789062 40.921875 C 50.902344 40.71875 51.019531 40.679688 51.113281 40.828125 Z M 48.742188 42.097656 C 48.898438 42.535156 49.03125 42.929688 49.03125 42.984375 C 49.03125 43.03125 48.910156 43.066406 48.761719 43.066406 C 48.539062 43.066406 48.484375 43.023438 48.425781 42.761719 C 48.304688 42.199219 48.269531 41.296875 48.363281 41.296875 C 48.417969 41.296875 48.585938 41.652344 48.742188 42.097656 Z M 51.734375 41.734375 C 52.523438 41.808594 52.570312 41.855469 52.363281 42.394531 C 52.207031 42.808594 52.179688 42.835938 51.828125 42.863281 C 51.429688 42.890625 51.4375 42.898438 50.929688 42.105469 C 50.800781 41.914062 50.699219 41.671875 50.699219 41.566406 C 50.699219 41.398438 50.707031 41.390625 50.929688 41.539062 C 51.050781 41.625 51.417969 41.707031 51.734375 41.734375 Z M 45.898438 42.078125 C 45.960938 42.855469 46.453125 43.953125 46.8125 44.148438 C 47.222656 44.355469 47.464844 44.316406 47.113281 44.101562 C 46.832031 43.925781 46.703125 43.738281 46.40625 43.113281 C 46.230469 42.730469 46.046875 41.9375 46.109375 41.875 C 46.140625 41.839844 46.371094 41.929688 46.621094 42.070312 C 46.859375 42.210938 47.195312 42.320312 47.363281 42.320312 C 47.566406 42.320312 47.742188 42.40625 47.925781 42.59375 C 48.277344 42.945312 48.269531 43.050781 47.863281 43.125 L 47.527344 43.191406 L 47.890625 43.382812 C 48.113281 43.515625 48.25 43.664062 48.269531 43.804688 C 48.296875 43.992188 48.316406 44 48.410156 43.871094 C 48.511719 43.738281 48.558594 43.765625 48.835938 44.046875 C 49.011719 44.222656 49.101562 44.375 49.039062 44.375 C 48.984375 44.375 48.9375 44.410156 48.9375 44.464844 C 48.9375 44.511719 48.992188 44.558594 49.058594 44.558594 C 49.121094 44.558594 49.269531 44.664062 49.382812 44.792969 C 49.558594 44.996094 49.566406 45.035156 49.445312 45.089844 C 49.316406 45.136719 49.324219 45.175781 49.503906 45.359375 C 49.667969 45.546875 49.6875 45.605469 49.585938 45.726562 C 49.484375 45.847656 49.492188 45.894531 49.632812 45.996094 C 49.761719 46.085938 49.769531 46.132812 49.679688 46.191406 C 49.585938 46.246094 49.585938 46.273438 49.679688 46.328125 C 49.761719 46.386719 49.679688 46.46875 49.417969 46.601562 C 49.214844 46.703125 48.964844 46.898438 48.855469 47.039062 C 48.695312 47.234375 48.613281 47.273438 48.410156 47.226562 C 48.011719 47.132812 47.640625 46.964844 47.640625 46.890625 C 47.640625 46.851562 47.585938 46.824219 47.527344 46.824219 C 47.464844 46.824219 47.242188 46.796875 47.039062 46.757812 C 46.695312 46.695312 46.613281 46.621094 46.203125 45.976562 C 45.101562 44.269531 44.941406 43.992188 45.136719 44.09375 C 45.460938 44.269531 45.324219 44.054688 44.925781 43.765625 C 44.554688 43.496094 43.933594 42.609375 43.933594 42.351562 C 43.933594 42.273438 44.042969 42.226562 44.203125 42.226562 C 44.386719 42.226562 44.535156 42.152344 44.664062 41.96875 C 44.824219 41.746094 44.871094 41.726562 45.042969 41.839844 C 45.257812 41.96875 45.546875 41.867188 45.636719 41.625 C 45.75 41.324219 45.851562 41.511719 45.898438 42.078125 Z M 49.714844 42.359375 C 50.046875 42.769531 50.328125 43.132812 50.328125 43.179688 C 50.328125 43.367188 49.457031 42.640625 49.207031 42.246094 C 48.9375 41.828125 48.855469 41.53125 49.019531 41.59375 C 49.066406 41.605469 49.382812 41.957031 49.714844 42.359375 Z M 52.773438 42.378906 C 52.863281 42.609375 52.835938 42.667969 52.644531 42.722656 C 52.4375 42.777344 52.429688 42.75 52.511719 42.433594 C 52.578125 42.191406 52.691406 42.164062 52.773438 42.378906 Z M 42.914062 42.777344 C 42.914062 42.898438 42.285156 43.441406 42.144531 43.441406 C 42.015625 43.441406 41.800781 43.265625 41.800781 43.152344 C 41.800781 43.113281 41.949219 43.058594 42.128906 43.03125 C 42.300781 42.992188 42.449219 42.929688 42.449219 42.882812 C 42.449219 42.816406 42.609375 42.742188 42.847656 42.703125 C 42.886719 42.703125 42.914062 42.730469 42.914062 42.777344 Z M 43.265625 43.273438 C 43.285156 43.355469 43.21875 43.441406 43.136719 43.476562 C 42.933594 43.550781 42.914062 43.523438 42.980469 43.273438 C 43.035156 43.039062 43.21875 43.039062 43.265625 43.273438 Z M 59.296875 45.808594 C 59.757812 45.855469 60.054688 45.984375 60.054688 46.144531 C 60.054688 46.179688 59.90625 46.433594 59.734375 46.695312 C 59.167969 47.523438 58.953125 48.121094 58.886719 49.097656 C 58.851562 49.585938 58.796875 49.929688 58.75 49.855469 C 58.710938 49.789062 58.535156 49.304688 58.351562 48.773438 C 57.980469 47.710938 57.859375 46.535156 58.046875 45.976562 C 58.148438 45.6875 58.175781 45.667969 58.480469 45.714844 C 58.65625 45.742188 59.027344 45.789062 59.296875 45.808594 Z M 50.019531 47.261719 C 50.167969 47.476562 50.207031 47.605469 50.140625 47.683594 C 50.074219 47.757812 50.105469 47.839844 50.234375 47.960938 C 50.464844 48.167969 50.472656 48.382812 50.261719 48.382812 C 50.085938 48.371094 49.214844 47.617188 49.214844 47.46875 C 49.214844 47.308594 49.601562 46.878906 49.714844 46.917969 C 49.769531 46.9375 49.910156 47.085938 50.019531 47.261719 Z M 41.609375 47.804688 C 41.988281 48.082031 41.960938 48.261719 41.488281 48.476562 C 41.253906 48.585938 41.023438 48.734375 40.957031 48.8125 C 40.902344 48.882812 40.78125 48.941406 40.699219 48.941406 C 40.617188 48.941406 40.496094 48.988281 40.441406 49.042969 C 40.394531 49.089844 40.125 49.125 39.855469 49.109375 C 39.410156 49.078125 39.355469 49.050781 39.273438 48.820312 C 39.171875 48.503906 39.320312 48.308594 39.855469 48.046875 C 40.058594 47.953125 40.226562 47.832031 40.226562 47.792969 C 40.226562 47.503906 41.226562 47.515625 41.609375 47.804688 Z M 57.628906 49.78125 C 57.859375 50.515625 57.886719 50.683594 57.785156 50.796875 C 57.5625 51.027344 57.414062 50.84375 57.191406 50.023438 C 57.007812 49.351562 56.988281 49.164062 57.082031 48.96875 C 57.144531 48.828125 57.230469 48.765625 57.277344 48.8125 C 57.3125 48.855469 57.480469 49.292969 57.628906 49.78125 Z M 58.339844 52.101562 C 58.367188 52.148438 58.351562 52.210938 58.296875 52.25 C 58.25 52.277344 58.203125 52.242188 58.203125 52.164062 C 58.203125 51.996094 58.257812 51.96875 58.339844 52.101562 Z M 58.507812 52.546875 C 58.675781 53.152344 58.675781 53.226562 58.488281 53.226562 C 58.351562 53.226562 58.277344 53.136719 58.210938 52.882812 C 58.15625 52.699219 58.136719 52.511719 58.164062 52.464844 C 58.25 52.335938 58.460938 52.378906 58.507812 52.546875 Z M 51.773438 53.273438 C 51.820312 53.378906 51.921875 53.40625 52.21875 53.359375 C 52.476562 53.320312 52.558594 53.332031 52.46875 53.394531 C 52.363281 53.472656 52.402344 53.519531 52.632812 53.640625 C 52.789062 53.722656 52.921875 53.863281 52.921875 53.9375 C 52.921875 54.023438 53.015625 54.160156 53.132812 54.265625 C 53.375 54.46875 53.238281 54.496094 52.976562 54.300781 C 52.875 54.226562 52.753906 54.160156 52.71875 54.160156 C 52.617188 54.160156 52.800781 54.523438 53.03125 54.785156 C 53.171875 54.933594 53.199219 55.054688 53.152344 55.269531 C 53.070312 55.671875 52.71875 55.671875 52.550781 55.28125 C 52.484375 55.128906 52.171875 54.703125 51.847656 54.328125 C 51.417969 53.84375 51.253906 53.574219 51.253906 53.394531 C 51.253906 53.183594 51.289062 53.136719 51.484375 53.136719 C 51.613281 53.136719 51.746094 53.199219 51.773438 53.273438 Z M 48.175781 55.148438 C 48.289062 55.335938 48.382812 55.53125 48.382812 55.597656 C 48.382812 55.664062 48.484375 55.808594 48.613281 55.933594 L 48.84375 56.144531 L 48.648438 56.285156 C 48.484375 56.40625 48.417969 56.398438 48.09375 56.25 C 47.632812 56.042969 47.269531 55.625 47.269531 55.289062 C 47.269531 54.71875 47.84375 54.625 48.175781 55.148438 Z M 51.644531 55.421875 C 51.792969 55.617188 51.707031 55.746094 51.4375 55.746094 C 51.199219 55.746094 51.160156 55.71875 51.160156 55.476562 C 51.160156 55.328125 51.132812 55.121094 51.09375 55.027344 C 51.050781 54.898438 51.085938 54.90625 51.308594 55.09375 C 51.457031 55.222656 51.605469 55.363281 51.644531 55.421875 Z M 54.589844 55.234375 C 54.589844 55.4375 54.117188 55.605469 54.015625 55.449219 C 53.867188 55.207031 53.941406 55.09375 54.265625 55.09375 C 54.496094 55.09375 54.589844 55.128906 54.589844 55.234375 Z M 44.582031 57.117188 C 44.582031 57.160156 44.371094 57.460938 44.117188 57.789062 C 43.859375 58.125 43.65625 58.421875 43.65625 58.457031 C 43.65625 58.625 43.339844 58.617188 43.007812 58.4375 C 42.609375 58.234375 42.597656 58.078125 42.96875 58.078125 C 43.109375 58.078125 43.191406 58.019531 43.191406 57.9375 C 43.191406 57.863281 43.277344 57.796875 43.378906 57.796875 C 43.480469 57.796875 43.5625 57.75 43.5625 57.703125 C 43.5625 57.648438 43.636719 57.609375 43.738281 57.609375 C 43.832031 57.609375 43.933594 57.527344 43.960938 57.421875 C 44.015625 57.199219 44.582031 56.929688 44.582031 57.117188 Z M 59.34375 68.507812 C 59.640625 68.621094 59.734375 68.871094 59.546875 69.078125 C 59.371094 69.273438 59.371094 69.53125 59.546875 69.597656 C 59.621094 69.636719 59.6875 69.710938 59.6875 69.785156 C 59.6875 69.894531 59.804688 69.960938 59.898438 69.894531 C 59.90625 69.886719 60.011719 69.933594 60.128906 70 C 60.289062 70.082031 60.332031 70.1875 60.332031 70.476562 C 60.332031 70.929688 60.160156 70.96875 59.972656 70.558594 C 59.832031 70.25 58.796875 69.125 58.574219 69.046875 C 58.460938 69.019531 58.488281 68.945312 58.703125 68.710938 C 59.007812 68.394531 59.019531 68.386719 59.34375 68.507812 Z M 60.425781 68.695312 C 60.425781 68.890625 60.128906 69.039062 59.953125 68.925781 C 59.878906 68.878906 59.917969 68.804688 60.066406 68.695312 C 60.351562 68.46875 60.425781 68.46875 60.425781 68.695312 Z M 61.261719 68.796875 C 61.261719 68.84375 61.15625 68.890625 61.03125 68.890625 C 60.898438 68.890625 60.796875 68.84375 60.796875 68.796875 C 60.796875 68.742188 60.898438 68.703125 61.03125 68.703125 C 61.15625 68.703125 61.261719 68.742188 61.261719 68.796875 Z M 61.019531 70.613281 C 61.230469 70.941406 61.214844 71.472656 60.992188 71.59375 C 60.890625 71.640625 60.789062 71.6875 60.757812 71.6875 C 60.730469 71.6875 60.703125 71.386719 60.703125 71.035156 C 60.703125 70.34375 60.777344 70.242188 61.019531 70.613281 Z M 61.019531 70.613281 "/>
<path style=" stroke:none;fill-rule:nonzero;fill:rgb(0%,0%,0%);fill-opacity:1;" d="M 47.742188 45.613281 C 47.6875 45.761719 47.648438 46.03125 47.648438 46.21875 C 47.660156 46.433594 47.675781 46.488281 47.703125 46.347656 C 47.757812 46.0625 47.824219 46.085938 48.195312 46.5625 C 48.371094 46.789062 48.558594 46.972656 48.605469 46.984375 C 48.640625 46.984375 48.578125 46.84375 48.445312 46.675781 C 48.316406 46.507812 48.167969 46.199219 48.113281 45.996094 C 47.945312 45.40625 47.851562 45.3125 47.742188 45.613281 Z M 47.742188 45.613281 "/>
</g>
</svg>
